# xmcd
#
# Track frame offsets:
#	150
#	22942
#	56962
#	90435
#	124432
#	159205
#	193520
#	216960
#	235335
#	253167
#	278337
#	307622
#
# Disc length: 4397 seconds
#
# Revision: 0
# Processed by: cddbd v1.5.1PL0 Copyright (c) Steve Scherf et al.
# Submitted via: dBpowerAMP V4.0
#
DISCID=99112b0c
DTITLE=Champion Jack Dupree - Get back Jack, Do it again
DYEAR=1997
DGENRE=Blues
TTITLE0=Wine, Wine, Wine
TTITLE1=Give Me Flowers While I'm Livin'
TTITLE2=Junker Blues
TTITLE3=I Keep on Drifting
TTITLE4=In the Evening
TTITLE5=Freedom Blues
TTITLE6=One Scotch, One Bourbon, One Beer
TTITLE7=She's Gone
TTITLE8=Lawdy, Lawdy
TTITLE9=I Used to Love You
TTITLE10=Rock the Boogie Woogie
TTITLE11=Sweet Little Baby
EXTD=
EXTT0=
EXTT1=
EXTT2=
EXTT3=
EXTT4=
EXTT5=
EXTT6=
EXTT7=
EXTT8=
EXTT9=
EXTT10=
EXTT11=
PLAYORDER=
